<?xml version="1.0" encoding="utf-8" standalone="no"?>
<!DOCTYPE svg PUBLIC "-//W3C//DTD SVG 1.1//EN"
  "http://www.w3.org/Graphics/SVG/1.1/DTD/svg11.dtd">
<svg xmlns:xlink="http://www.w3.org/1999/xlink" width="937.503125pt" height="470.741875pt" viewBox="0 0 937.503125 470.741875" xmlns="http://www.w3.org/2000/svg" version="1.1">
 <metadata>
  <rdf:RDF xmlns:dc="http://purl.org/dc/elements/1.1/" xmlns:cc="http://creativecommons.org/ns#" xmlns:rdf="http://www.w3.org/1999/02/22-rdf-syntax-ns#">
   <cc:Work>
    <dc:type rdf:resource="http://purl.org/dc/dcmitype/StillImage"/>
    <dc:date>2023-01-18T13:01:27.561784</dc:date>
    <dc:format>image/svg+xml</dc:format>
    <dc:creator>
     <cc:Agent>
      <dc:title>Matplotlib v3.5.3, https://matplotlib.org/</dc:title>
     </cc:Agent>
    </dc:creator>
   </cc:Work>
  </rdf:RDF>
 </metadata>
 <defs>
  <style type="text/css">*{stroke-linejoin: round; stroke-linecap: butt}</style>
 </defs>
 <g id="figure_1">
  <g id="patch_1">
   <path d="M -0 470.741875 
L 937.503125 470.741875 
L 937.503125 0 
L -0 0 
z
" style="fill: #ffffff"/>
  </g>
  <g id="axes_1">
   <g id="patch_2">
    <path d="M 149.103125 450.72 
L 930.303125 450.72 
L 930.303125 7.2 
L 149.103125 7.2 
z
" style="fill: #eaeaf2"/>
   </g>
   <g id="matplotlib.axis_1">
    <g id="xtick_1">
     <g id="line2d_1"/>
     <g id="text_1">
      <!-- −0.4 -->
      <g style="fill: #262626" transform="translate(253.81936 461.466875)scale(0.1 -0.1)">
       <defs>
        <path id="LiberationSans-2212" d="M 316 1900 
L 316 2356 
L 3425 2356 
L 3425 1900 
L 316 1900 
z
" transform="scale(0.015625)"/>
        <path id="LiberationSans-30" d="M 3309 2203 
Q 3309 1569 3189 1136 
Q 3069 703 2861 436 
Q 2653 169 2372 53 
Q 2091 -63 1772 -63 
Q 1450 -63 1172 53 
Q 894 169 689 434 
Q 484 700 367 1133 
Q 250 1566 250 2203 
Q 250 2869 367 3305 
Q 484 3741 690 4000 
Q 897 4259 1178 4364 
Q 1459 4469 1791 4469 
Q 2106 4469 2382 4364 
Q 2659 4259 2865 4000 
Q 3072 3741 3190 3305 
Q 3309 2869 3309 2203 
z
M 2738 2203 
Q 2738 2728 2675 3076 
Q 2613 3425 2491 3633 
Q 2369 3841 2192 3927 
Q 2016 4013 1791 4013 
Q 1553 4013 1372 3925 
Q 1191 3838 1067 3630 
Q 944 3422 881 3073 
Q 819 2725 819 2203 
Q 819 1697 883 1350 
Q 947 1003 1070 792 
Q 1194 581 1372 489 
Q 1550 397 1778 397 
Q 2000 397 2178 489 
Q 2356 581 2479 792 
Q 2603 1003 2670 1350 
Q 2738 1697 2738 2203 
z
" transform="scale(0.015625)"/>
        <path id="LiberationSans-2e" d="M 584 0 
L 584 684 
L 1194 684 
L 1194 0 
L 584 0 
z
" transform="scale(0.015625)"/>
        <path id="LiberationSans-34" d="M 2753 997 
L 2753 0 
L 2222 0 
L 2222 997 
L 147 997 
L 147 1434 
L 2163 4403 
L 2753 4403 
L 2753 1441 
L 3372 1441 
L 3372 997 
L 2753 997 
z
M 2222 3769 
Q 2216 3753 2191 3708 
Q 2166 3663 2134 3606 
Q 2103 3550 2070 3492 
Q 2038 3434 2013 3397 
L 884 1734 
Q 869 1709 839 1668 
Q 809 1628 778 1586 
Q 747 1544 715 1503 
Q 684 1463 666 1441 
L 2222 1441 
L 2222 3769 
z
" transform="scale(0.015625)"/>
       </defs>
       <use xlink:href="#LiberationSans-2212"/>
       <use xlink:href="#LiberationSans-30" x="58.398438"/>
       <use xlink:href="#LiberationSans-2e" x="114.013672"/>
       <use xlink:href="#LiberationSans-34" x="141.796875"/>
      </g>
     </g>
    </g>
    <g id="xtick_2">
     <g id="line2d_2"/>
     <g id="text_2">
      <!-- −0.2 -->
      <g style="fill: #262626" transform="translate(384.460517 461.466875)scale(0.1 -0.1)">
       <defs>
        <path id="LiberationSans-32" d="M 322 0 
L 322 397 
Q 481 763 711 1042 
Q 941 1322 1194 1548 
Q 1447 1775 1695 1969 
Q 1944 2163 2144 2356 
Q 2344 2550 2467 2762 
Q 2591 2975 2591 3244 
Q 2591 3431 2534 3573 
Q 2478 3716 2372 3812 
Q 2266 3909 2117 3957 
Q 1969 4006 1788 4006 
Q 1619 4006 1470 3959 
Q 1322 3913 1206 3819 
Q 1091 3725 1017 3586 
Q 944 3447 922 3263 
L 347 3316 
Q 375 3553 478 3762 
Q 581 3972 762 4130 
Q 944 4288 1198 4378 
Q 1453 4469 1788 4469 
Q 2116 4469 2372 4391 
Q 2628 4313 2804 4159 
Q 2981 4006 3075 3781 
Q 3169 3556 3169 3263 
Q 3169 3041 3089 2841 
Q 3009 2641 2876 2459 
Q 2744 2278 2569 2109 
Q 2394 1941 2203 1780 
Q 2013 1619 1819 1461 
Q 1625 1303 1454 1143 
Q 1284 984 1150 820 
Q 1016 656 941 478 
L 3238 478 
L 3238 0 
L 322 0 
z
" transform="scale(0.015625)"/>
       </defs>
       <use xlink:href="#LiberationSans-2212"/>
       <use xlink:href="#LiberationSans-30" x="58.398438"/>
       <use xlink:href="#LiberationSans-2e" x="114.013672"/>
       <use xlink:href="#LiberationSans-32" x="141.796875"/>
      </g>
     </g>
    </g>
    <g id="xtick_3">
     <g id="line2d_3"/>
     <g id="text_3">
      <!-- 0.0 -->
      <g style="fill: #262626" transform="translate(518.021986 461.466875)scale(0.1 -0.1)">
       <use xlink:href="#LiberationSans-30"/>
       <use xlink:href="#LiberationSans-2e" x="55.615234"/>
       <use xlink:href="#LiberationSans-30" x="83.398438"/>
      </g>
     </g>
    </g>
    <g id="xtick_4">
     <g id="line2d_4"/>
     <g id="text_4">
      <!-- 0.2 -->
      <g style="fill: #262626" transform="translate(648.663143 461.466875)scale(0.1 -0.1)">
       <use xlink:href="#LiberationSans-30"/>
       <use xlink:href="#LiberationSans-2e" x="55.615234"/>
       <use xlink:href="#LiberationSans-32" x="83.398438"/>
      </g>
     </g>
    </g>
    <g id="xtick_5">
     <g id="line2d_5"/>
     <g id="text_5">
      <!-- 0.4 -->
      <g style="fill: #262626" transform="translate(779.304299 461.466875)scale(0.1 -0.1)">
       <use xlink:href="#LiberationSans-30"/>
       <use xlink:href="#LiberationSans-2e" x="55.615234"/>
       <use xlink:href="#LiberationSans-34" x="83.398438"/>
      </g>
     </g>
    </g>
    <g id="xtick_6">
     <g id="line2d_6"/>
     <g id="text_6">
      <!-- 0.6 -->
      <g style="fill: #262626" transform="translate(909.945456 461.466875)scale(0.1 -0.1)">
       <defs>
        <path id="LiberationSans-36" d="M 3278 1441 
Q 3278 1109 3186 832 
Q 3094 556 2914 357 
Q 2734 159 2468 48 
Q 2203 -63 1856 -63 
Q 1472 -63 1184 84 
Q 897 231 706 507 
Q 516 784 420 1186 
Q 325 1588 325 2100 
Q 325 2688 433 3131 
Q 541 3575 744 3872 
Q 947 4169 1239 4319 
Q 1531 4469 1900 4469 
Q 2125 4469 2322 4422 
Q 2519 4375 2680 4270 
Q 2841 4166 2962 3994 
Q 3084 3822 3156 3572 
L 2619 3475 
Q 2531 3759 2339 3886 
Q 2147 4013 1894 4013 
Q 1663 4013 1475 3903 
Q 1288 3794 1156 3576 
Q 1025 3359 954 3031 
Q 884 2703 884 2266 
Q 1038 2550 1316 2698 
Q 1594 2847 1953 2847 
Q 2253 2847 2497 2750 
Q 2741 2653 2914 2470 
Q 3088 2288 3183 2027 
Q 3278 1766 3278 1441 
z
M 2706 1416 
Q 2706 1644 2650 1828 
Q 2594 2013 2481 2142 
Q 2369 2272 2203 2342 
Q 2038 2413 1819 2413 
Q 1666 2413 1509 2367 
Q 1353 2322 1226 2220 
Q 1100 2119 1020 1953 
Q 941 1788 941 1550 
Q 941 1306 1003 1095 
Q 1066 884 1183 728 
Q 1300 572 1465 481 
Q 1631 391 1838 391 
Q 2041 391 2202 461 
Q 2363 531 2475 664 
Q 2588 797 2647 987 
Q 2706 1178 2706 1416 
z
" transform="scale(0.015625)"/>
       </defs>
       <use xlink:href="#LiberationSans-30"/>
       <use xlink:href="#LiberationSans-2e" x="55.615234"/>
       <use xlink:href="#LiberationSans-36" x="83.398438"/>
      </g>
     </g>
    </g>
   </g>
   <g id="matplotlib.axis_2">
    <g id="ytick_1">
     <g id="line2d_7"/>
     <g id="text_7">
      <!-- workclass_ Private -->
      <g style="fill: #262626" transform="translate(62.246875 426.429591)scale(0.1 -0.1)">
       <defs>
        <path id="LiberationSans-77" d="M 3669 0 
L 3016 0 
L 2475 2181 
Q 2450 2266 2423 2391 
Q 2397 2516 2372 2634 
Q 2341 2772 2313 2919 
Q 2284 2778 2253 2641 
Q 2228 2522 2198 2394 
Q 2169 2266 2144 2169 
L 1588 0 
L 938 0 
L -9 3381 
L 547 3381 
L 1119 1084 
Q 1141 1013 1162 908 
Q 1184 803 1206 703 
Q 1228 588 1253 466 
Q 1278 584 1306 697 
Q 1331 794 1356 894 
Q 1381 994 1400 1059 
L 2013 3381 
L 2616 3381 
L 3206 1059 
Q 3228 978 3253 875 
Q 3278 772 3300 681 
Q 3325 575 3350 466 
Q 3375 584 3400 697 
Q 3422 794 3445 898 
Q 3469 1003 3491 1084 
L 4088 3381 
L 4638 3381 
L 3669 0 
z
" transform="scale(0.015625)"/>
        <path id="LiberationSans-6f" d="M 3291 1694 
Q 3291 806 2900 371 
Q 2509 -63 1766 -63 
Q 1413 -63 1134 43 
Q 856 150 664 369 
Q 472 588 370 917 
Q 269 1247 269 1694 
Q 269 3444 1784 3444 
Q 2178 3444 2464 3334 
Q 2750 3225 2933 3006 
Q 3116 2788 3203 2459 
Q 3291 2131 3291 1694 
z
M 2700 1694 
Q 2700 2088 2639 2344 
Q 2578 2600 2461 2753 
Q 2344 2906 2175 2967 
Q 2006 3028 1794 3028 
Q 1578 3028 1404 2964 
Q 1231 2900 1109 2745 
Q 988 2591 923 2334 
Q 859 2078 859 1694 
Q 859 1300 928 1042 
Q 997 784 1117 631 
Q 1238 478 1402 415 
Q 1566 353 1759 353 
Q 1975 353 2150 414 
Q 2325 475 2447 628 
Q 2569 781 2634 1040 
Q 2700 1300 2700 1694 
z
" transform="scale(0.015625)"/>
        <path id="LiberationSans-72" d="M 444 0 
L 444 2594 
Q 444 2700 442 2811 
Q 441 2922 437 3025 
Q 434 3128 431 3218 
Q 428 3309 425 3381 
L 956 3381 
Q 959 3309 964 3217 
Q 969 3125 973 3028 
Q 978 2931 979 2842 
Q 981 2753 981 2691 
L 994 2691 
Q 1053 2884 1120 3026 
Q 1188 3169 1278 3261 
Q 1369 3353 1494 3398 
Q 1619 3444 1797 3444 
Q 1866 3444 1928 3433 
Q 1991 3422 2025 3413 
L 2025 2897 
Q 1969 2913 1894 2920 
Q 1819 2928 1725 2928 
Q 1531 2928 1395 2840 
Q 1259 2753 1173 2598 
Q 1088 2444 1047 2230 
Q 1006 2016 1006 1763 
L 1006 0 
L 444 0 
z
" transform="scale(0.015625)"/>
        <path id="LiberationSans-6b" d="M 2550 0 
L 1406 1544 
L 994 1203 
L 994 0 
L 431 0 
L 431 4638 
L 994 4638 
L 994 1741 
L 2478 3381 
L 3138 3381 
L 1766 1928 
L 3209 0 
L 2550 0 
z
" transform="scale(0.015625)"/>
        <path id="LiberationSans-63" d="M 859 1706 
Q 859 1416 901 1172 
Q 944 928 1044 751 
Q 1144 575 1308 478 
Q 1472 381 1713 381 
Q 2013 381 2214 543 
Q 2416 706 2463 1044 
L 3031 1006 
Q 3003 797 2909 603 
Q 2816 409 2655 262 
Q 2494 116 2262 26 
Q 2031 -63 1728 -63 
Q 1331 -63 1053 71 
Q 775 206 601 442 
Q 428 678 350 998 
Q 272 1319 272 1694 
Q 272 2034 328 2295 
Q 384 2556 486 2751 
Q 588 2947 725 3080 
Q 863 3213 1023 3292 
Q 1184 3372 1362 3408 
Q 1541 3444 1722 3444 
Q 2006 3444 2228 3366 
Q 2450 3288 2611 3152 
Q 2772 3016 2872 2831 
Q 2972 2647 3013 2434 
L 2434 2391 
Q 2391 2672 2212 2837 
Q 2034 3003 1706 3003 
Q 1466 3003 1305 2923 
Q 1144 2844 1044 2683 
Q 944 2522 901 2278 
Q 859 2034 859 1706 
z
" transform="scale(0.015625)"/>
        <path id="LiberationSans-6c" d="M 431 0 
L 431 4638 
L 994 4638 
L 994 0 
L 431 0 
z
" transform="scale(0.015625)"/>
        <path id="LiberationSans-61" d="M 1294 -63 
Q 784 -63 528 206 
Q 272 475 272 944 
Q 272 1278 398 1492 
Q 525 1706 729 1828 
Q 934 1950 1196 1997 
Q 1459 2044 1731 2050 
L 2491 2063 
L 2491 2247 
Q 2491 2456 2447 2603 
Q 2403 2750 2312 2840 
Q 2222 2931 2086 2973 
Q 1950 3016 1766 3016 
Q 1603 3016 1472 2992 
Q 1341 2969 1244 2908 
Q 1147 2847 1087 2742 
Q 1028 2638 1009 2478 
L 422 2531 
Q 453 2731 540 2898 
Q 628 3066 789 3187 
Q 950 3309 1192 3376 
Q 1434 3444 1778 3444 
Q 2416 3444 2737 3151 
Q 3059 2859 3059 2306 
L 3059 850 
Q 3059 600 3125 473 
Q 3191 347 3375 347 
Q 3422 347 3469 353 
Q 3516 359 3559 369 
L 3559 19 
Q 3453 -6 3348 -18 
Q 3244 -31 3125 -31 
Q 2966 -31 2852 11 
Q 2738 53 2666 139 
Q 2594 225 2556 351 
Q 2519 478 2509 647 
L 2491 647 
Q 2400 484 2292 353 
Q 2184 222 2040 130 
Q 1897 38 1714 -12 
Q 1531 -63 1294 -63 
z
M 1422 359 
Q 1691 359 1892 457 
Q 2094 556 2226 709 
Q 2359 863 2425 1044 
Q 2491 1225 2491 1391 
L 2491 1669 
L 1875 1656 
Q 1669 1653 1483 1626 
Q 1297 1600 1156 1522 
Q 1016 1444 933 1303 
Q 850 1163 850 934 
Q 850 659 998 509 
Q 1147 359 1422 359 
z
" transform="scale(0.015625)"/>
        <path id="LiberationSans-73" d="M 2969 934 
Q 2969 697 2876 511 
Q 2784 325 2609 198 
Q 2434 72 2179 4 
Q 1925 -63 1597 -63 
Q 1303 -63 1067 -17 
Q 831 28 653 128 
Q 475 228 354 392 
Q 234 556 178 794 
L 675 891 
Q 747 619 972 492 
Q 1197 366 1597 366 
Q 1778 366 1929 391 
Q 2081 416 2190 477 
Q 2300 538 2361 639 
Q 2422 741 2422 891 
Q 2422 1044 2350 1142 
Q 2278 1241 2150 1306 
Q 2022 1372 1839 1420 
Q 1656 1469 1438 1528 
Q 1234 1581 1034 1647 
Q 834 1713 673 1820 
Q 513 1928 413 2087 
Q 313 2247 313 2488 
Q 313 2950 642 3192 
Q 972 3434 1603 3434 
Q 2163 3434 2492 3237 
Q 2822 3041 2909 2606 
L 2403 2544 
Q 2375 2675 2300 2764 
Q 2225 2853 2119 2908 
Q 2013 2963 1880 2986 
Q 1747 3009 1603 3009 
Q 1222 3009 1040 2893 
Q 859 2778 859 2544 
Q 859 2406 926 2317 
Q 994 2228 1114 2167 
Q 1234 2106 1403 2061 
Q 1572 2016 1775 1966 
Q 1909 1931 2050 1892 
Q 2191 1853 2323 1798 
Q 2456 1744 2573 1670 
Q 2691 1597 2778 1494 
Q 2866 1391 2917 1253 
Q 2969 1116 2969 934 
z
" transform="scale(0.015625)"/>
        <path id="LiberationSans-5f" d="M -97 -1272 
L -97 -866 
L 3631 -866 
L 3631 -1272 
L -97 -1272 
z
" transform="scale(0.015625)"/>
        <path id="LiberationSans-20" transform="scale(0.015625)"/>
        <path id="LiberationSans-50" d="M 3931 3078 
Q 3931 2791 3836 2542 
Q 3741 2294 3552 2111 
Q 3363 1928 3078 1822 
Q 2794 1716 2416 1716 
L 1122 1716 
L 1122 0 
L 525 0 
L 525 4403 
L 2378 4403 
Q 2769 4403 3059 4308 
Q 3350 4213 3544 4039 
Q 3738 3866 3834 3620 
Q 3931 3375 3931 3078 
z
M 3331 3072 
Q 3331 3491 3075 3708 
Q 2819 3925 2306 3925 
L 1122 3925 
L 1122 2188 
L 2331 2188 
Q 2847 2188 3089 2416 
Q 3331 2644 3331 3072 
z
" transform="scale(0.015625)"/>
        <path id="LiberationSans-69" d="M 428 4100 
L 428 4638 
L 991 4638 
L 991 4100 
L 428 4100 
z
M 428 0 
L 428 3381 
L 991 3381 
L 991 0 
L 428 0 
z
" transform="scale(0.015625)"/>
        <path id="LiberationSans-76" d="M 1916 0 
L 1250 0 
L 22 3381 
L 622 3381 
L 1366 1181 
Q 1388 1113 1417 1014 
Q 1447 916 1478 809 
Q 1509 703 1536 604 
Q 1563 506 1581 441 
Q 1600 506 1629 604 
Q 1659 703 1690 806 
Q 1722 909 1755 1007 
Q 1788 1106 1813 1175 
L 2581 3381 
L 3178 3381 
L 1916 0 
z
" transform="scale(0.015625)"/>
        <path id="LiberationSans-74" d="M 1731 25 
Q 1603 -9 1470 -29 
Q 1338 -50 1163 -50 
Q 488 -50 488 716 
L 488 2972 
L 97 2972 
L 97 3381 
L 509 3381 
L 675 4138 
L 1050 4138 
L 1050 3381 
L 1675 3381 
L 1675 2972 
L 1050 2972 
L 1050 838 
Q 1050 594 1129 495 
Q 1209 397 1406 397 
Q 1488 397 1564 409 
Q 1641 422 1731 441 
L 1731 25 
z
" transform="scale(0.015625)"/>
        <path id="LiberationSans-65" d="M 863 1572 
Q 863 1306 917 1082 
Q 972 859 1086 698 
Q 1200 538 1378 448 
Q 1556 359 1806 359 
Q 2172 359 2392 506 
Q 2613 653 2691 878 
L 3184 738 
Q 3131 597 3036 455 
Q 2941 313 2781 198 
Q 2622 84 2383 10 
Q 2144 -63 1806 -63 
Q 1056 -63 664 384 
Q 272 831 272 1713 
Q 272 2188 390 2517 
Q 509 2847 715 3053 
Q 922 3259 1197 3351 
Q 1472 3444 1784 3444 
Q 2209 3444 2495 3306 
Q 2781 3169 2954 2926 
Q 3128 2684 3201 2356 
Q 3275 2028 3275 1647 
L 3275 1572 
L 863 1572 
z
M 2694 2003 
Q 2647 2538 2422 2783 
Q 2197 3028 1775 3028 
Q 1634 3028 1479 2983 
Q 1325 2938 1194 2822 
Q 1063 2706 972 2507 
Q 881 2309 869 2003 
L 2694 2003 
z
" transform="scale(0.015625)"/>
       </defs>
       <use xlink:href="#LiberationSans-77"/>
       <use xlink:href="#LiberationSans-6f" x="72.216797"/>
       <use xlink:href="#LiberationSans-72" x="127.832031"/>
       <use xlink:href="#LiberationSans-6b" x="161.132812"/>
       <use xlink:href="#LiberationSans-63" x="211.132812"/>
       <use xlink:href="#LiberationSans-6c" x="261.132812"/>
       <use xlink:href="#LiberationSans-61" x="283.349609"/>
       <use xlink:href="#LiberationSans-73" x="338.964844"/>
       <use xlink:href="#LiberationSans-73" x="388.964844"/>
       <use xlink:href="#LiberationSans-5f" x="438.964844"/>
       <use xlink:href="#LiberationSans-20" x="494.580078"/>
       <use xlink:href="#LiberationSans-50" x="522.363281"/>
       <use xlink:href="#LiberationSans-72" x="589.0625"/>
       <use xlink:href="#LiberationSans-69" x="622.363281"/>
       <use xlink:href="#LiberationSans-76" x="644.580078"/>
       <use xlink:href="#LiberationSans-61" x="694.580078"/>
       <use xlink:href="#LiberationSans-74" x="750.195312"/>
       <use xlink:href="#LiberationSans-65" x="777.978516"/>
      </g>
     </g>
    </g>
    <g id="ytick_2">
     <g id="line2d_8"/>
     <g id="text_8">
      <!-- occupation_ Armed-Forces -->
      <g style="fill: #262626" transform="translate(26.107813 407.044976)scale(0.1 -0.1)">
       <defs>
        <path id="LiberationSans-75" d="M 981 3381 
L 981 1238 
Q 981 991 1017 825 
Q 1053 659 1134 557 
Q 1216 456 1348 414 
Q 1481 372 1678 372 
Q 1878 372 2039 442 
Q 2200 513 2314 645 
Q 2428 778 2490 973 
Q 2553 1169 2553 1422 
L 2553 3381 
L 3116 3381 
L 3116 722 
Q 3116 616 3117 498 
Q 3119 381 3122 276 
Q 3125 172 3128 97 
Q 3131 22 3134 0 
L 2603 0 
Q 2600 16 2597 84 
Q 2594 153 2589 242 
Q 2584 331 2581 423 
Q 2578 516 2578 578 
L 2569 578 
Q 2488 431 2391 312 
Q 2294 194 2166 111 
Q 2038 28 1872 -17 
Q 1706 -63 1488 -63 
Q 1206 -63 1003 6 
Q 800 75 669 219 
Q 538 363 477 588 
Q 416 813 416 1128 
L 416 3381 
L 981 3381 
z
" transform="scale(0.015625)"/>
        <path id="LiberationSans-70" d="M 3291 1706 
Q 3291 1322 3228 997 
Q 3166 672 3020 437 
Q 2875 203 2636 70 
Q 2397 -63 2047 -63 
Q 1684 -63 1412 75 
Q 1141 213 997 525 
L 981 525 
Q 984 519 986 469 
Q 988 419 989 344 
Q 991 269 992 176 
Q 994 84 994 -6 
L 994 -1328 
L 431 -1328 
L 431 2691 
Q 431 2813 429 2925 
Q 428 3038 425 3130 
Q 422 3222 419 3287 
Q 416 3353 413 3381 
L 956 3381 
Q 959 3372 964 3315 
Q 969 3259 973 3179 
Q 978 3100 983 3009 
Q 988 2919 988 2838 
L 1000 2838 
Q 1078 3000 1178 3114 
Q 1278 3228 1406 3301 
Q 1534 3375 1692 3408 
Q 1850 3441 2047 3441 
Q 2397 3441 2636 3316 
Q 2875 3191 3020 2964 
Q 3166 2738 3228 2417 
Q 3291 2097 3291 1706 
z
M 2700 1694 
Q 2700 2006 2662 2250 
Q 2625 2494 2533 2662 
Q 2441 2831 2287 2918 
Q 2134 3006 1903 3006 
Q 1716 3006 1550 2953 
Q 1384 2900 1261 2750 
Q 1138 2600 1066 2336 
Q 994 2072 994 1650 
Q 994 1291 1053 1042 
Q 1113 794 1227 641 
Q 1341 488 1509 420 
Q 1678 353 1897 353 
Q 2131 353 2286 443 
Q 2441 534 2533 706 
Q 2625 878 2662 1126 
Q 2700 1375 2700 1694 
z
" transform="scale(0.015625)"/>
        <path id="LiberationSans-6e" d="M 2578 0 
L 2578 2144 
Q 2578 2391 2542 2556 
Q 2506 2722 2425 2823 
Q 2344 2925 2211 2967 
Q 2078 3009 1881 3009 
Q 1681 3009 1520 2939 
Q 1359 2869 1245 2736 
Q 1131 2603 1068 2408 
Q 1006 2213 1006 1959 
L 1006 0 
L 444 0 
L 444 2659 
Q 444 2766 442 2883 
Q 441 3000 437 3104 
Q 434 3209 431 3284 
Q 428 3359 425 3381 
L 956 3381 
Q 959 3366 962 3297 
Q 966 3228 970 3139 
Q 975 3050 978 2958 
Q 981 2866 981 2803 
L 991 2803 
Q 1072 2950 1169 3069 
Q 1266 3188 1394 3270 
Q 1522 3353 1687 3398 
Q 1853 3444 2072 3444 
Q 2353 3444 2556 3375 
Q 2759 3306 2890 3162 
Q 3022 3019 3083 2792 
Q 3144 2566 3144 2253 
L 3144 0 
L 2578 0 
z
" transform="scale(0.015625)"/>
        <path id="LiberationSans-41" d="M 3647 0 
L 3144 1288 
L 1138 1288 
L 631 0 
L 13 0 
L 1809 4403 
L 2488 4403 
L 4256 0 
L 3647 0 
z
M 2400 3206 
Q 2350 3331 2304 3459 
Q 2259 3588 2225 3692 
Q 2191 3797 2167 3867 
Q 2144 3938 2141 3953 
Q 2134 3938 2112 3866 
Q 2091 3794 2055 3687 
Q 2019 3581 1973 3453 
Q 1928 3325 1881 3200 
L 1319 1753 
L 2966 1753 
L 2400 3206 
z
" transform="scale(0.015625)"/>
        <path id="LiberationSans-6d" d="M 2400 0 
L 2400 2144 
Q 2400 2391 2369 2556 
Q 2338 2722 2264 2823 
Q 2191 2925 2072 2967 
Q 1953 3009 1781 3009 
Q 1603 3009 1459 2939 
Q 1316 2869 1214 2736 
Q 1113 2603 1058 2408 
Q 1003 2213 1003 1959 
L 1003 0 
L 444 0 
L 444 2659 
Q 444 2766 442 2883 
Q 441 3000 437 3104 
Q 434 3209 431 3284 
Q 428 3359 425 3381 
L 956 3381 
Q 959 3366 962 3297 
Q 966 3228 970 3139 
Q 975 3050 978 2958 
Q 981 2866 981 2803 
L 991 2803 
Q 1066 2950 1153 3069 
Q 1241 3188 1358 3270 
Q 1475 3353 1626 3398 
Q 1778 3444 1978 3444 
Q 2363 3444 2586 3291 
Q 2809 3138 2897 2803 
L 2906 2803 
Q 2981 2950 3075 3069 
Q 3169 3188 3294 3270 
Q 3419 3353 3575 3398 
Q 3731 3444 3931 3444 
Q 4188 3444 4373 3375 
Q 4559 3306 4678 3162 
Q 4797 3019 4853 2792 
Q 4909 2566 4909 2253 
L 4909 0 
L 4353 0 
L 4353 2144 
Q 4353 2391 4322 2556 
Q 4291 2722 4217 2823 
Q 4144 2925 4025 2967 
Q 3906 3009 3734 3009 
Q 3556 3009 3412 2942 
Q 3269 2875 3167 2744 
Q 3066 2613 3011 2416 
Q 2956 2219 2956 1959 
L 2956 0 
L 2400 0 
z
" transform="scale(0.015625)"/>
        <path id="LiberationSans-64" d="M 2566 544 
Q 2409 219 2151 78 
Q 1894 -63 1513 -63 
Q 872 -63 570 368 
Q 269 800 269 1675 
Q 269 3444 1513 3444 
Q 1897 3444 2153 3303 
Q 2409 3163 2566 2856 
L 2572 2856 
Q 2572 2888 2570 2955 
Q 2569 3022 2567 3095 
Q 2566 3169 2566 3234 
Q 2566 3300 2566 3328 
L 2566 4638 
L 3128 4638 
L 3128 697 
Q 3128 575 3129 462 
Q 3131 350 3134 256 
Q 3138 163 3141 95 
Q 3144 28 3147 0 
L 2609 0 
Q 2603 31 2598 89 
Q 2594 147 2589 222 
Q 2584 297 2581 380 
Q 2578 463 2578 544 
L 2566 544 
z
M 859 1694 
Q 859 1344 903 1094 
Q 947 844 1044 683 
Q 1141 522 1291 447 
Q 1441 372 1656 372 
Q 1878 372 2048 444 
Q 2219 516 2333 677 
Q 2447 838 2506 1097 
Q 2566 1356 2566 1731 
Q 2566 2091 2506 2339 
Q 2447 2588 2331 2741 
Q 2216 2894 2048 2961 
Q 1881 3028 1663 3028 
Q 1456 3028 1306 2956 
Q 1156 2884 1056 2725 
Q 956 2566 907 2311 
Q 859 2056 859 1694 
z
" transform="scale(0.015625)"/>
        <path id="LiberationSans-2d" d="M 284 1450 
L 284 1950 
L 1847 1950 
L 1847 1450 
L 284 1450 
z
" transform="scale(0.015625)"/>
        <path id="LiberationSans-46" d="M 1122 3916 
L 1122 2278 
L 3578 2278 
L 3578 1784 
L 1122 1784 
L 1122 0 
L 525 0 
L 525 4403 
L 3653 4403 
L 3653 3916 
L 1122 3916 
z
" transform="scale(0.015625)"/>
       </defs>
       <use xlink:href="#LiberationSans-6f"/>
       <use xlink:href="#LiberationSans-63" x="55.615234"/>
       <use xlink:href="#LiberationSans-63" x="105.615234"/>
       <use xlink:href="#LiberationSans-75" x="155.615234"/>
       <use xlink:href="#LiberationSans-70" x="211.230469"/>
       <use xlink:href="#LiberationSans-61" x="266.845703"/>
       <use xlink:href="#LiberationSans-74" x="322.460938"/>
       <use xlink:href="#LiberationSans-69" x="350.244141"/>
       <use xlink:href="#LiberationSans-6f" x="372.460938"/>
       <use xlink:href="#LiberationSans-6e" x="428.076172"/>
       <use xlink:href="#LiberationSans-5f" x="483.691406"/>
       <use xlink:href="#LiberationSans-20" x="539.306641"/>
       <use xlink:href="#LiberationSans-41" x="561.589844"/>
       <use xlink:href="#LiberationSans-72" x="628.289062"/>
       <use xlink:href="#LiberationSans-6d" x="661.589844"/>
       <use xlink:href="#LiberationSans-65" x="744.890625"/>
       <use xlink:href="#LiberationSans-64" x="800.505859"/>
       <use xlink:href="#LiberationSans-2d" x="856.121094"/>
       <use xlink:href="#LiberationSans-46" x="889.421875"/>
       <use xlink:href="#LiberationSans-6f" x="950.505859"/>
       <use xlink:href="#LiberationSans-72" x="1006.121094"/>
       <use xlink:href="#LiberationSans-63" x="1039.421875"/>
       <use xlink:href="#LiberationSans-65" x="1089.421875"/>
       <use xlink:href="#LiberationSans-73" x="1145.037109"/>
      </g>
     </g>
    </g>
    <g id="ytick_3">
     <g id="line2d_9"/>
     <g id="text_9">
      <!-- occupation_ Sales -->
      <g style="fill: #262626" transform="translate(63.884375 387.660361)scale(0.1 -0.1)">
       <defs>
        <path id="LiberationSans-53" d="M 3975 1216 
Q 3975 938 3867 703 
Q 3759 469 3534 298 
Q 3309 128 2967 32 
Q 2625 -63 2156 -63 
Q 1334 -63 875 225 
Q 416 513 291 1056 
L 869 1172 
Q 913 1000 1003 859 
Q 1094 719 1248 617 
Q 1403 516 1631 459 
Q 1859 403 2178 403 
Q 2444 403 2666 448 
Q 2888 494 3047 587 
Q 3206 681 3295 829 
Q 3384 978 3384 1184 
Q 3384 1400 3286 1534 
Q 3188 1669 3009 1756 
Q 2831 1844 2584 1903 
Q 2338 1963 2038 2031 
Q 1853 2072 1667 2120 
Q 1481 2169 1311 2236 
Q 1141 2303 991 2393 
Q 841 2484 731 2611 
Q 622 2738 559 2905 
Q 497 3072 497 3291 
Q 497 3603 623 3826 
Q 750 4050 975 4194 
Q 1200 4338 1506 4403 
Q 1813 4469 2169 4469 
Q 2578 4469 2868 4405 
Q 3159 4341 3359 4212 
Q 3559 4084 3679 3895 
Q 3800 3706 3872 3456 
L 3284 3353 
Q 3241 3513 3158 3638 
Q 3075 3763 2940 3847 
Q 2806 3931 2614 3975 
Q 2422 4019 2163 4019 
Q 1856 4019 1648 3964 
Q 1441 3909 1314 3815 
Q 1188 3722 1133 3595 
Q 1078 3469 1078 3322 
Q 1078 3125 1176 2998 
Q 1275 2872 1444 2787 
Q 1613 2703 1834 2647 
Q 2056 2591 2306 2534 
Q 2509 2488 2711 2439 
Q 2913 2391 3097 2323 
Q 3281 2256 3442 2165 
Q 3603 2075 3722 1944 
Q 3841 1813 3908 1634 
Q 3975 1456 3975 1216 
z
" transform="scale(0.015625)"/>
       </defs>
       <use xlink:href="#LiberationSans-6f"/>
       <use xlink:href="#LiberationSans-63" x="55.615234"/>
       <use xlink:href="#LiberationSans-63" x="105.615234"/>
       <use xlink:href="#LiberationSans-75" x="155.615234"/>
       <use xlink:href="#LiberationSans-70" x="211.230469"/>
       <use xlink:href="#LiberationSans-61" x="266.845703"/>
       <use xlink:href="#LiberationSans-74" x="322.460938"/>
       <use xlink:href="#LiberationSans-69" x="350.244141"/>
       <use xlink:href="#LiberationSans-6f" x="372.460938"/>
       <use xlink:href="#LiberationSans-6e" x="428.076172"/>
       <use xlink:href="#LiberationSans-5f" x="483.691406"/>
       <use xlink:href="#LiberationSans-20" x="539.306641"/>
       <use xlink:href="#LiberationSans-53" x="567.089844"/>
       <use xlink:href="#LiberationSans-61" x="633.789062"/>
       <use xlink:href="#LiberationSans-6c" x="689.404297"/>
       <use xlink:href="#LiberationSans-65" x="711.621094"/>
       <use xlink:href="#LiberationSans-73" x="767.236328"/>
      </g>
     </g>
    </g>
    <g id="ytick_4">
     <g id="line2d_10"/>
     <g id="text_10">
      <!-- workclass_ Public -->
      <g style="fill: #262626" transform="translate(66.132813 368.275745)scale(0.1 -0.1)">
       <defs>
        <path id="LiberationSans-62" d="M 3291 1706 
Q 3291 -63 2047 -63 
Q 1663 -63 1408 76 
Q 1153 216 994 525 
L 988 525 
Q 988 444 983 356 
Q 978 269 973 194 
Q 969 119 964 66 
Q 959 13 956 0 
L 413 0 
Q 416 28 419 95 
Q 422 163 425 256 
Q 428 350 429 462 
Q 431 575 431 697 
L 431 4638 
L 994 4638 
L 994 3316 
Q 994 3222 992 3136 
Q 991 3050 988 2984 
Q 984 2906 981 2838 
L 994 2838 
Q 1150 3163 1408 3303 
Q 1666 3444 2047 3444 
Q 2688 3444 2989 3012 
Q 3291 2581 3291 1706 
z
M 2700 1688 
Q 2700 2038 2656 2288 
Q 2613 2538 2516 2698 
Q 2419 2859 2269 2934 
Q 2119 3009 1903 3009 
Q 1681 3009 1511 2937 
Q 1341 2866 1227 2706 
Q 1113 2547 1053 2287 
Q 994 2028 994 1653 
Q 994 1291 1053 1044 
Q 1113 797 1227 642 
Q 1341 488 1509 420 
Q 1678 353 1897 353 
Q 2103 353 2253 425 
Q 2403 497 2503 656 
Q 2603 816 2651 1070 
Q 2700 1325 2700 1688 
z
" transform="scale(0.015625)"/>
       </defs>
       <use xlink:href="#LiberationSans-77"/>
       <use xlink:href="#LiberationSans-6f" x="72.216797"/>
       <use xlink:href="#LiberationSans-72" x="127.832031"/>
       <use xlink:href="#LiberationSans-6b" x="161.132812"/>
       <use xlink:href="#LiberationSans-63" x="211.132812"/>
       <use xlink:href="#LiberationSans-6c" x="261.132812"/>
       <use xlink:href="#LiberationSans-61" x="283.349609"/>
       <use xlink:href="#LiberationSans-73" x="338.964844"/>
       <use xlink:href="#LiberationSans-73" x="388.964844"/>
       <use xlink:href="#LiberationSans-5f" x="438.964844"/>
       <use xlink:href="#LiberationSans-20" x="494.580078"/>
       <use xlink:href="#LiberationSans-50" x="522.363281"/>
       <use xlink:href="#LiberationSans-75" x="589.0625"/>
       <use xlink:href="#LiberationSans-62" x="644.677734"/>
       <use xlink:href="#LiberationSans-6c" x="700.292969"/>
       <use xlink:href="#LiberationSans-69" x="722.509766"/>
       <use xlink:href="#LiberationSans-63" x="744.726562"/>
      </g>
     </g>
    </g>
    <g id="ytick_5">
     <g id="line2d_11"/>
     <g id="text_11">
      <!-- occupation_ Machine-op-inspct -->
      <g style="fill: #262626" transform="translate(7.2 348.89113)scale(0.1 -0.1)">
       <defs>
        <path id="LiberationSans-4d" d="M 4269 0 
L 4269 2938 
Q 4269 3097 4272 3262 
Q 4275 3428 4281 3566 
Q 4288 3725 4297 3875 
Q 4253 3716 4206 3559 
Q 4166 3425 4117 3273 
Q 4069 3122 4022 3000 
L 2884 0 
L 2466 0 
L 1313 3000 
Q 1294 3047 1273 3109 
Q 1253 3172 1229 3242 
Q 1206 3313 1182 3386 
Q 1159 3459 1138 3531 
Q 1084 3697 1034 3875 
Q 1038 3700 1044 3528 
Q 1050 3381 1053 3220 
Q 1056 3059 1056 2938 
L 1056 0 
L 525 0 
L 525 4403 
L 1309 4403 
L 2481 1350 
Q 2503 1288 2534 1189 
Q 2566 1091 2594 987 
Q 2622 884 2645 792 
Q 2669 700 2678 650 
Q 2688 700 2713 794 
Q 2738 888 2770 991 
Q 2803 1094 2834 1191 
Q 2866 1288 2891 1350 
L 4041 4403 
L 4806 4403 
L 4806 0 
L 4269 0 
z
" transform="scale(0.015625)"/>
        <path id="LiberationSans-68" d="M 991 2803 
Q 1084 2975 1193 3095 
Q 1303 3216 1434 3294 
Q 1566 3372 1722 3408 
Q 1878 3444 2072 3444 
Q 2397 3444 2605 3356 
Q 2813 3269 2933 3111 
Q 3053 2953 3098 2734 
Q 3144 2516 3144 2253 
L 3144 0 
L 2578 0 
L 2578 2144 
Q 2578 2359 2551 2521 
Q 2525 2684 2450 2792 
Q 2375 2900 2237 2954 
Q 2100 3009 1881 3009 
Q 1681 3009 1520 2937 
Q 1359 2866 1245 2734 
Q 1131 2603 1068 2415 
Q 1006 2228 1006 1994 
L 1006 0 
L 444 0 
L 444 4638 
L 1006 4638 
L 1006 3431 
Q 1006 3328 1003 3225 
Q 1000 3122 995 3034 
Q 991 2947 987 2886 
Q 984 2825 981 2803 
L 991 2803 
z
" transform="scale(0.015625)"/>
       </defs>
       <use xlink:href="#LiberationSans-6f"/>
       <use xlink:href="#LiberationSans-63" x="55.615234"/>
       <use xlink:href="#LiberationSans-63" x="105.615234"/>
       <use xlink:href="#LiberationSans-75" x="155.615234"/>
       <use xlink:href="#LiberationSans-70" x="211.230469"/>
       <use xlink:href="#LiberationSans-61" x="266.845703"/>
       <use xlink:href="#LiberationSans-74" x="322.460938"/>
       <use xlink:href="#LiberationSans-69" x="350.244141"/>
       <use xlink:href="#LiberationSans-6f" x="372.460938"/>
       <use xlink:href="#LiberationSans-6e" x="428.076172"/>
       <use xlink:href="#LiberationSans-5f" x="483.691406"/>
       <use xlink:href="#LiberationSans-20" x="539.306641"/>
       <use xlink:href="#LiberationSans-4d" x="567.089844"/>
       <use xlink:href="#LiberationSans-61" x="650.390625"/>
       <use xlink:href="#LiberationSans-63" x="706.005859"/>
       <use xlink:href="#LiberationSans-68" x="756.005859"/>
       <use xlink:href="#LiberationSans-69" x="811.621094"/>
       <use xlink:href="#LiberationSans-6e" x="833.837891"/>
       <use xlink:href="#LiberationSans-65" x="889.453125"/>
       <use xlink:href="#LiberationSans-2d" x="945.068359"/>
       <use xlink:href="#LiberationSans-6f" x="978.369141"/>
       <use xlink:href="#LiberationSans-70" x="1033.984375"/>
       <use xlink:href="#LiberationSans-2d" x="1089.599609"/>
       <use xlink:href="#LiberationSans-69" x="1122.900391"/>
       <use xlink:href="#LiberationSans-6e" x="1145.117188"/>
       <use xlink:href="#LiberationSans-73" x="1200.732422"/>
       <use xlink:href="#LiberationSans-70" x="1250.732422"/>
       <use xlink:href="#LiberationSans-63" x="1306.347656"/>
       <use xlink:href="#LiberationSans-74" x="1356.347656"/>
      </g>
     </g>
    </g>
    <g id="ytick_6">
     <g id="line2d_12"/>
     <g id="text_12">
      <!-- occupation_ Farming-fishing -->
      <g style="fill: #262626" transform="translate(19.992188 329.506514)scale(0.1 -0.1)">
       <defs>
        <path id="LiberationSans-67" d="M 1713 -1328 
Q 1422 -1328 1197 -1268 
Q 972 -1209 812 -1098 
Q 653 -988 553 -834 
Q 453 -681 409 -494 
L 975 -413 
Q 1031 -647 1223 -773 
Q 1416 -900 1728 -900 
Q 1919 -900 2075 -847 
Q 2231 -794 2340 -676 
Q 2450 -559 2509 -371 
Q 2569 -184 2569 84 
L 2569 628 
L 2563 628 
Q 2500 500 2408 383 
Q 2316 266 2183 175 
Q 2050 84 1875 29 
Q 1700 -25 1475 -25 
Q 1153 -25 923 83 
Q 694 191 548 406 
Q 403 622 336 942 
Q 269 1263 269 1684 
Q 269 2091 336 2416 
Q 403 2741 554 2967 
Q 706 3194 948 3314 
Q 1191 3434 1538 3434 
Q 1897 3434 2161 3270 
Q 2425 3106 2569 2803 
L 2575 2803 
Q 2575 2881 2579 2978 
Q 2584 3075 2589 3161 
Q 2594 3247 2600 3309 
Q 2606 3372 2613 3381 
L 3147 3381 
Q 3144 3353 3141 3286 
Q 3138 3219 3134 3125 
Q 3131 3031 3129 2917 
Q 3128 2803 3128 2681 
L 3128 97 
Q 3128 -613 2779 -970 
Q 2431 -1328 1713 -1328 
z
M 2569 1691 
Q 2569 2044 2492 2295 
Q 2416 2547 2291 2706 
Q 2166 2866 2005 2941 
Q 1844 3016 1675 3016 
Q 1459 3016 1304 2941 
Q 1150 2866 1048 2705 
Q 947 2544 898 2292 
Q 850 2041 850 1691 
Q 850 1325 898 1076 
Q 947 828 1047 675 
Q 1147 522 1300 456 
Q 1453 391 1666 391 
Q 1834 391 1995 462 
Q 2156 534 2284 690 
Q 2413 847 2491 1094 
Q 2569 1341 2569 1691 
z
" transform="scale(0.015625)"/>
        <path id="LiberationSans-66" d="M 1128 2972 
L 1128 0 
L 566 0 
L 566 2972 
L 91 2972 
L 91 3381 
L 566 3381 
L 566 3763 
Q 566 3947 600 4105 
Q 634 4263 726 4380 
Q 819 4497 978 4564 
Q 1138 4631 1391 4631 
Q 1491 4631 1598 4622 
Q 1706 4613 1788 4594 
L 1788 4166 
Q 1734 4175 1664 4183 
Q 1594 4191 1538 4191 
Q 1413 4191 1333 4156 
Q 1253 4122 1208 4058 
Q 1163 3994 1145 3900 
Q 1128 3806 1128 3684 
L 1128 3381 
L 1788 3381 
L 1788 2972 
L 1128 2972 
z
" transform="scale(0.015625)"/>
       </defs>
       <use xlink:href="#LiberationSans-6f"/>
       <use xlink:href="#LiberationSans-63" x="55.615234"/>
       <use xlink:href="#LiberationSans-63" x="105.615234"/>
       <use xlink:href="#LiberationSans-75" x="155.615234"/>
       <use xlink:href="#LiberationSans-70" x="211.230469"/>
       <use xlink:href="#LiberationSans-61" x="266.845703"/>
       <use xlink:href="#LiberationSans-74" x="322.460938"/>
       <use xlink:href="#LiberationSans-69" x="350.244141"/>
       <use xlink:href="#LiberationSans-6f" x="372.460938"/>
       <use xlink:href="#LiberationSans-6e" x="428.076172"/>
       <use xlink:href="#LiberationSans-5f" x="483.691406"/>
       <use xlink:href="#LiberationSans-20" x="539.306641"/>
       <use xlink:href="#LiberationSans-46" x="567.089844"/>
       <use xlink:href="#LiberationSans-61" x="628.173828"/>
       <use xlink:href="#LiberationSans-72" x="683.789062"/>
       <use xlink:href="#LiberationSans-6d" x="717.089844"/>
       <use xlink:href="#LiberationSans-69" x="800.390625"/>
       <use xlink:href="#LiberationSans-6e" x="822.607422"/>
       <use xlink:href="#LiberationSans-67" x="878.222656"/>
       <use xlink:href="#LiberationSans-2d" x="933.837891"/>
       <use xlink:href="#LiberationSans-66" x="967.138672"/>
       <use xlink:href="#LiberationSans-69" x="994.921875"/>
       <use xlink:href="#LiberationSans-73" x="1017.138672"/>
       <use xlink:href="#LiberationSans-68" x="1067.138672"/>
       <use xlink:href="#LiberationSans-69" x="1122.753906"/>
       <use xlink:href="#LiberationSans-6e" x="1144.970703"/>
       <use xlink:href="#LiberationSans-67" x="1200.585938"/>
      </g>
     </g>
    </g>
    <g id="ytick_7">
     <g id="line2d_13"/>
     <g id="text_13">
      <!-- workclass_Unemployed -->
      <g style="fill: #262626" transform="translate(40.007813 310.121899)scale(0.1 -0.1)">
       <defs>
        <path id="LiberationSans-55" d="M 2284 -63 
Q 1922 -63 1597 34 
Q 1272 131 1026 336 
Q 781 541 637 855 
Q 494 1169 494 1600 
L 494 4403 
L 1091 4403 
L 1091 1650 
Q 1091 1316 1180 1083 
Q 1269 850 1428 703 
Q 1588 556 1805 489 
Q 2022 422 2281 422 
Q 2538 422 2766 490 
Q 2994 559 3166 709 
Q 3338 859 3436 1101 
Q 3534 1344 3534 1691 
L 3534 4403 
L 4128 4403 
L 4128 1656 
Q 4128 1216 3983 892 
Q 3838 569 3588 356 
Q 3338 144 3002 40 
Q 2666 -63 2284 -63 
z
" transform="scale(0.015625)"/>
        <path id="LiberationSans-79" d="M 1888 0 
Q 1769 -306 1645 -551 
Q 1522 -797 1369 -970 
Q 1216 -1144 1028 -1236 
Q 841 -1328 597 -1328 
Q 491 -1328 400 -1322 
Q 309 -1316 209 -1294 
L 209 -872 
Q 269 -881 344 -886 
Q 419 -891 472 -891 
Q 719 -891 931 -706 
Q 1144 -522 1303 -119 
L 1356 16 
L 16 3381 
L 616 3381 
L 1328 1513 
Q 1359 1428 1407 1287 
Q 1456 1147 1504 1006 
Q 1553 866 1590 753 
Q 1628 641 1634 613 
Q 1644 647 1680 748 
Q 1716 850 1761 975 
Q 1806 1100 1853 1228 
Q 1900 1356 1931 1450 
L 2594 3381 
L 3188 3381 
L 1888 0 
z
" transform="scale(0.015625)"/>
       </defs>
       <use xlink:href="#LiberationSans-77"/>
       <use xlink:href="#LiberationSans-6f" x="72.216797"/>
       <use xlink:href="#LiberationSans-72" x="127.832031"/>
       <use xlink:href="#LiberationSans-6b" x="161.132812"/>
       <use xlink:href="#LiberationSans-63" x="211.132812"/>
       <use xlink:href="#LiberationSans-6c" x="261.132812"/>
       <use xlink:href="#LiberationSans-61" x="283.349609"/>
       <use xlink:href="#LiberationSans-73" x="338.964844"/>
       <use xlink:href="#LiberationSans-73" x="388.964844"/>
       <use xlink:href="#LiberationSans-5f" x="438.964844"/>
       <use xlink:href="#LiberationSans-55" x="494.580078"/>
       <use xlink:href="#LiberationSans-6e" x="566.796875"/>
       <use xlink:href="#LiberationSans-65" x="622.412109"/>
       <use xlink:href="#LiberationSans-6d" x="678.027344"/>
       <use xlink:href="#LiberationSans-70" x="761.328125"/>
       <use xlink:href="#LiberationSans-6c" x="816.943359"/>
       <use xlink:href="#LiberationSans-6f" x="839.160156"/>
       <use xlink:href="#LiberationSans-79" x="894.775391"/>
       <use xlink:href="#LiberationSans-65" x="944.775391"/>
       <use xlink:href="#LiberationSans-64" x="1000.390625"/>
      </g>
     </g>
    </g>
    <g id="ytick_8">
     <g id="line2d_14"/>
     <g id="text_14">
      <!-- occupation_ Handlers-cleaners -->
      <g style="fill: #262626" transform="translate(7.75625 290.737284)scale(0.1 -0.1)">
       <defs>
        <path id="LiberationSans-48" d="M 3503 0 
L 3503 2041 
L 1122 2041 
L 1122 0 
L 525 0 
L 525 4403 
L 1122 4403 
L 1122 2541 
L 3503 2541 
L 3503 4403 
L 4100 4403 
L 4100 0 
L 3503 0 
z
" transform="scale(0.015625)"/>
       </defs>
       <use xlink:href="#LiberationSans-6f"/>
       <use xlink:href="#LiberationSans-63" x="55.615234"/>
       <use xlink:href="#LiberationSans-63" x="105.615234"/>
       <use xlink:href="#LiberationSans-75" x="155.615234"/>
       <use xlink:href="#LiberationSans-70" x="211.230469"/>
       <use xlink:href="#LiberationSans-61" x="266.845703"/>
       <use xlink:href="#LiberationSans-74" x="322.460938"/>
       <use xlink:href="#LiberationSans-69" x="350.244141"/>
       <use xlink:href="#LiberationSans-6f" x="372.460938"/>
       <use xlink:href="#LiberationSans-6e" x="428.076172"/>
       <use xlink:href="#LiberationSans-5f" x="483.691406"/>
       <use xlink:href="#LiberationSans-20" x="539.306641"/>
       <use xlink:href="#LiberationSans-48" x="567.089844"/>
       <use xlink:href="#LiberationSans-61" x="639.306641"/>
       <use xlink:href="#LiberationSans-6e" x="694.921875"/>
       <use xlink:href="#LiberationSans-64" x="750.537109"/>
       <use xlink:href="#LiberationSans-6c" x="806.152344"/>
       <use xlink:href="#LiberationSans-65" x="828.369141"/>
       <use xlink:href="#LiberationSans-72" x="883.984375"/>
       <use xlink:href="#LiberationSans-73" x="917.285156"/>
       <use xlink:href="#LiberationSans-2d" x="967.285156"/>
       <use xlink:href="#LiberationSans-63" x="1000.585938"/>
       <use xlink:href="#LiberationSans-6c" x="1050.585938"/>
       <use xlink:href="#LiberationSans-65" x="1072.802734"/>
       <use xlink:href="#LiberationSans-61" x="1128.417969"/>
       <use xlink:href="#LiberationSans-6e" x="1184.033203"/>
       <use xlink:href="#LiberationSans-65" x="1239.648438"/>
       <use xlink:href="#LiberationSans-72" x="1295.263672"/>
       <use xlink:href="#LiberationSans-73" x="1328.564453"/>
      </g>
     </g>
    </g>
    <g id="ytick_9">
     <g id="line2d_15"/>
     <g id="text_15">
      <!-- occupation_ Tech-support -->
      <g style="fill: #262626" transform="translate(31.275 271.352668)scale(0.1 -0.1)">
       <defs>
        <path id="LiberationSans-54" d="M 2250 3916 
L 2250 0 
L 1656 0 
L 1656 3916 
L 144 3916 
L 144 4403 
L 3763 4403 
L 3763 3916 
L 2250 3916 
z
" transform="scale(0.015625)"/>
       </defs>
       <use xlink:href="#LiberationSans-6f"/>
       <use xlink:href="#LiberationSans-63" x="55.615234"/>
       <use xlink:href="#LiberationSans-63" x="105.615234"/>
       <use xlink:href="#LiberationSans-75" x="155.615234"/>
       <use xlink:href="#LiberationSans-70" x="211.230469"/>
       <use xlink:href="#LiberationSans-61" x="266.845703"/>
       <use xlink:href="#LiberationSans-74" x="322.460938"/>
       <use xlink:href="#LiberationSans-69" x="350.244141"/>
       <use xlink:href="#LiberationSans-6f" x="372.460938"/>
       <use xlink:href="#LiberationSans-6e" x="428.076172"/>
       <use xlink:href="#LiberationSans-5f" x="483.691406"/>
       <use xlink:href="#LiberationSans-20" x="539.306641"/>
       <use xlink:href="#LiberationSans-54" x="565.339844"/>
       <use xlink:href="#LiberationSans-65" x="615.298828"/>
       <use xlink:href="#LiberationSans-63" x="670.914062"/>
       <use xlink:href="#LiberationSans-68" x="720.914062"/>
       <use xlink:href="#LiberationSans-2d" x="776.529297"/>
       <use xlink:href="#LiberationSans-73" x="809.830078"/>
       <use xlink:href="#LiberationSans-75" x="859.830078"/>
       <use xlink:href="#LiberationSans-70" x="915.445312"/>
       <use xlink:href="#LiberationSans-70" x="971.060547"/>
       <use xlink:href="#LiberationSans-6f" x="1026.675781"/>
       <use xlink:href="#LiberationSans-72" x="1082.291016"/>
       <use xlink:href="#LiberationSans-74" x="1115.591797"/>
      </g>
     </g>
    </g>
    <g id="ytick_10">
     <g id="line2d_16"/>
     <g id="text_16">
      <!-- occupation_ Other-service -->
      <g style="fill: #262626" transform="translate(28.8875 251.968053)scale(0.1 -0.1)">
       <defs>
        <path id="LiberationSans-4f" d="M 4672 2222 
Q 4672 1706 4523 1284 
Q 4375 863 4094 563 
Q 3813 263 3406 100 
Q 3000 -63 2484 -63 
Q 1941 -63 1531 107 
Q 1122 278 850 583 
Q 578 888 440 1306 
Q 303 1725 303 2222 
Q 303 2738 447 3153 
Q 591 3569 869 3861 
Q 1147 4153 1555 4311 
Q 1963 4469 2491 4469 
Q 3016 4469 3423 4309 
Q 3831 4150 4107 3856 
Q 4384 3563 4528 3147 
Q 4672 2731 4672 2222 
z
M 4063 2222 
Q 4063 2619 3961 2944 
Q 3859 3269 3661 3500 
Q 3463 3731 3169 3856 
Q 2875 3981 2491 3981 
Q 2097 3981 1800 3856 
Q 1503 3731 1304 3500 
Q 1106 3269 1007 2944 
Q 909 2619 909 2222 
Q 909 1825 1011 1495 
Q 1113 1166 1311 927 
Q 1509 688 1804 555 
Q 2100 422 2484 422 
Q 2897 422 3195 556 
Q 3494 691 3686 930 
Q 3878 1169 3970 1500 
Q 4063 1831 4063 2222 
z
" transform="scale(0.015625)"/>
       </defs>
       <use xlink:href="#LiberationSans-6f"/>
       <use xlink:href="#LiberationSans-63" x="55.615234"/>
       <use xlink:href="#LiberationSans-63" x="105.615234"/>
       <use xlink:href="#LiberationSans-75" x="155.615234"/>
       <use xlink:href="#LiberationSans-70" x="211.230469"/>
       <use xlink:href="#LiberationSans-61" x="266.845703"/>
       <use xlink:href="#LiberationSans-74" x="322.460938"/>
       <use xlink:href="#LiberationSans-69" x="350.244141"/>
       <use xlink:href="#LiberationSans-6f" x="372.460938"/>
       <use xlink:href="#LiberationSans-6e" x="428.076172"/>
       <use xlink:href="#LiberationSans-5f" x="483.691406"/>
       <use xlink:href="#LiberationSans-20" x="539.306641"/>
       <use xlink:href="#LiberationSans-4f" x="567.089844"/>
       <use xlink:href="#LiberationSans-74" x="644.873047"/>
       <use xlink:href="#LiberationSans-68" x="672.65625"/>
       <use xlink:href="#LiberationSans-65" x="728.271484"/>
       <use xlink:href="#LiberationSans-72" x="783.886719"/>
       <use xlink:href="#LiberationSans-2d" x="817.1875"/>
       <use xlink:href="#LiberationSans-73" x="850.488281"/>
       <use xlink:href="#LiberationSans-65" x="900.488281"/>
       <use xlink:href="#LiberationSans-72" x="956.103516"/>
       <use xlink:href="#LiberationSans-76" x="989.404297"/>
       <use xlink:href="#LiberationSans-69" x="1039.404297"/>
       <use xlink:href="#LiberationSans-63" x="1061.621094"/>
       <use xlink:href="#LiberationSans-65" x="1111.621094"/>
      </g>
     </g>
    </g>
    <g id="ytick_11">
     <g id="line2d_17"/>
     <g id="text_17">
      <!-- occupation_ Transport-moving -->
      <g style="fill: #262626" transform="translate(11.095313 232.583437)scale(0.1 -0.1)">
       <use xlink:href="#LiberationSans-6f"/>
       <use xlink:href="#LiberationSans-63" x="55.615234"/>
       <use xlink:href="#LiberationSans-63" x="105.615234"/>
       <use xlink:href="#LiberationSans-75" x="155.615234"/>
       <use xlink:href="#LiberationSans-70" x="211.230469"/>
       <use xlink:href="#LiberationSans-61" x="266.845703"/>
       <use xlink:href="#LiberationSans-74" x="322.460938"/>
       <use xlink:href="#LiberationSans-69" x="350.244141"/>
       <use xlink:href="#LiberationSans-6f" x="372.460938"/>
       <use xlink:href="#LiberationSans-6e" x="428.076172"/>
       <use xlink:href="#LiberationSans-5f" x="483.691406"/>
       <use xlink:href="#LiberationSans-20" x="539.306641"/>
       <use xlink:href="#LiberationSans-54" x="565.339844"/>
       <use xlink:href="#LiberationSans-72" x="622.673828"/>
       <use xlink:href="#LiberationSans-61" x="655.974609"/>
       <use xlink:href="#LiberationSans-6e" x="711.589844"/>
       <use xlink:href="#LiberationSans-73" x="767.205078"/>
       <use xlink:href="#LiberationSans-70" x="817.205078"/>
       <use xlink:href="#LiberationSans-6f" x="872.820312"/>
       <use xlink:href="#LiberationSans-72" x="928.435547"/>
       <use xlink:href="#LiberationSans-74" x="961.736328"/>
       <use xlink:href="#LiberationSans-2d" x="989.519531"/>
       <use xlink:href="#LiberationSans-6d" x="1022.820312"/>
       <use xlink:href="#LiberationSans-6f" x="1106.121094"/>
       <use xlink:href="#LiberationSans-76" x="1161.736328"/>
       <use xlink:href="#LiberationSans-69" x="1211.736328"/>
       <use xlink:href="#LiberationSans-6e" x="1233.953125"/>
       <use xlink:href="#LiberationSans-67" x="1289.568359"/>
      </g>
     </g>
    </g>
    <g id="ytick_12">
     <g id="line2d_18"/>
     <g id="text_18">
      <!-- occupation_ Prof-specialty -->
      <g style="fill: #262626" transform="translate(28.325 213.198822)scale(0.1 -0.1)">
       <use xlink:href="#LiberationSans-6f"/>
       <use xlink:href="#LiberationSans-63" x="55.615234"/>
       <use xlink:href="#LiberationSans-63" x="105.615234"/>
       <use xlink:href="#LiberationSans-75" x="155.615234"/>
       <use xlink:href="#LiberationSans-70" x="211.230469"/>
       <use xlink:href="#LiberationSans-61" x="266.845703"/>
       <use xlink:href="#LiberationSans-74" x="322.460938"/>
       <use xlink:href="#LiberationSans-69" x="350.244141"/>
       <use xlink:href="#LiberationSans-6f" x="372.460938"/>
       <use xlink:href="#LiberationSans-6e" x="428.076172"/>
       <use xlink:href="#LiberationSans-5f" x="483.691406"/>
       <use xlink:href="#LiberationSans-20" x="539.306641"/>
       <use xlink:href="#LiberationSans-50" x="567.089844"/>
       <use xlink:href="#LiberationSans-72" x="633.789062"/>
       <use xlink:href="#LiberationSans-6f" x="667.089844"/>
       <use xlink:href="#LiberationSans-66" x="722.705078"/>
       <use xlink:href="#LiberationSans-2d" x="750.488281"/>
       <use xlink:href="#LiberationSans-73" x="783.789062"/>
       <use xlink:href="#LiberationSans-70" x="833.789062"/>
       <use xlink:href="#LiberationSans-65" x="889.404297"/>
       <use xlink:href="#LiberationSans-63" x="945.019531"/>
       <use xlink:href="#LiberationSans-69" x="995.019531"/>
       <use xlink:href="#LiberationSans-61" x="1017.236328"/>
       <use xlink:href="#LiberationSans-6c" x="1072.851562"/>
       <use xlink:href="#LiberationSans-74" x="1095.068359"/>
       <use xlink:href="#LiberationSans-79" x="1122.851562"/>
      </g>
     </g>
    </g>
    <g id="ytick_13">
     <g id="line2d_19"/>
     <g id="text_19">
      <!-- capital loss -->
      <g style="fill: #262626" transform="translate(96.1375 193.814207)scale(0.1 -0.1)">
       <use xlink:href="#LiberationSans-63"/>
       <use xlink:href="#LiberationSans-61" x="50"/>
       <use xlink:href="#LiberationSans-70" x="105.615234"/>
       <use xlink:href="#LiberationSans-69" x="161.230469"/>
       <use xlink:href="#LiberationSans-74" x="183.447266"/>
       <use xlink:href="#LiberationSans-61" x="211.230469"/>
       <use xlink:href="#LiberationSans-6c" x="266.845703"/>
       <use xlink:href="#LiberationSans-20" x="289.0625"/>
       <use xlink:href="#LiberationSans-6c" x="316.845703"/>
       <use xlink:href="#LiberationSans-6f" x="339.0625"/>
       <use xlink:href="#LiberationSans-73" x="394.677734"/>
       <use xlink:href="#LiberationSans-73" x="444.677734"/>
      </g>
     </g>
    </g>
    <g id="ytick_14">
     <g id="line2d_20"/>
     <g id="text_20">
      <!-- occupation_ Protective-serv -->
      <g style="fill: #262626" transform="translate(22.217188 174.429591)scale(0.1 -0.1)">
       <use xlink:href="#LiberationSans-6f"/>
       <use xlink:href="#LiberationSans-63" x="55.615234"/>
       <use xlink:href="#LiberationSans-63" x="105.615234"/>
       <use xlink:href="#LiberationSans-75" x="155.615234"/>
       <use xlink:href="#LiberationSans-70" x="211.230469"/>
       <use xlink:href="#LiberationSans-61" x="266.845703"/>
       <use xlink:href="#LiberationSans-74" x="322.460938"/>
       <use xlink:href="#LiberationSans-69" x="350.244141"/>
       <use xlink:href="#LiberationSans-6f" x="372.460938"/>
       <use xlink:href="#LiberationSans-6e" x="428.076172"/>
       <use xlink:href="#LiberationSans-5f" x="483.691406"/>
       <use xlink:href="#LiberationSans-20" x="539.306641"/>
       <use xlink:href="#LiberationSans-50" x="567.089844"/>
       <use xlink:href="#LiberationSans-72" x="633.789062"/>
       <use xlink:href="#LiberationSans-6f" x="667.089844"/>
       <use xlink:href="#LiberationSans-74" x="722.705078"/>
       <use xlink:href="#LiberationSans-65" x="750.488281"/>
       <use xlink:href="#LiberationSans-63" x="806.103516"/>
       <use xlink:href="#LiberationSans-74" x="856.103516"/>
       <use xlink:href="#LiberationSans-69" x="883.886719"/>
       <use xlink:href="#LiberationSans-76" x="906.103516"/>
       <use xlink:href="#LiberationSans-65" x="956.103516"/>
       <use xlink:href="#LiberationSans-2d" x="1011.71875"/>
       <use xlink:href="#LiberationSans-73" x="1045.019531"/>
       <use xlink:href="#LiberationSans-65" x="1095.019531"/>
       <use xlink:href="#LiberationSans-72" x="1150.634766"/>
       <use xlink:href="#LiberationSans-76" x="1183.935547"/>
      </g>
     </g>
    </g>
    <g id="ytick_15">
     <g id="line2d_21"/>
     <g id="text_21">
      <!-- capital gain -->
      <g style="fill: #262626" transform="translate(95.015625 155.044976)scale(0.1 -0.1)">
       <use xlink:href="#LiberationSans-63"/>
       <use xlink:href="#LiberationSans-61" x="50"/>
       <use xlink:href="#LiberationSans-70" x="105.615234"/>
       <use xlink:href="#LiberationSans-69" x="161.230469"/>
       <use xlink:href="#LiberationSans-74" x="183.447266"/>
       <use xlink:href="#LiberationSans-61" x="211.230469"/>
       <use xlink:href="#LiberationSans-6c" x="266.845703"/>
       <use xlink:href="#LiberationSans-20" x="289.0625"/>
       <use xlink:href="#LiberationSans-67" x="316.845703"/>
       <use xlink:href="#LiberationSans-61" x="372.460938"/>
       <use xlink:href="#LiberationSans-69" x="428.076172"/>
       <use xlink:href="#LiberationSans-6e" x="450.292969"/>
      </g>
     </g>
    </g>
    <g id="ytick_16">
     <g id="line2d_22"/>
     <g id="text_22">
      <!-- occupation_ Priv-house-serv -->
      <g style="fill: #262626" transform="translate(18.882813 135.660361)scale(0.1 -0.1)">
       <use xlink:href="#LiberationSans-6f"/>
       <use xlink:href="#LiberationSans-63" x="55.615234"/>
       <use xlink:href="#LiberationSans-63" x="105.615234"/>
       <use xlink:href="#LiberationSans-75" x="155.615234"/>
       <use xlink:href="#LiberationSans-70" x="211.230469"/>
       <use xlink:href="#LiberationSans-61" x="266.845703"/>
       <use xlink:href="#LiberationSans-74" x="322.460938"/>
       <use xlink:href="#LiberationSans-69" x="350.244141"/>
       <use xlink:href="#LiberationSans-6f" x="372.460938"/>
       <use xlink:href="#LiberationSans-6e" x="428.076172"/>
       <use xlink:href="#LiberationSans-5f" x="483.691406"/>
       <use xlink:href="#LiberationSans-20" x="539.306641"/>
       <use xlink:href="#LiberationSans-50" x="567.089844"/>
       <use xlink:href="#LiberationSans-72" x="633.789062"/>
       <use xlink:href="#LiberationSans-69" x="667.089844"/>
       <use xlink:href="#LiberationSans-76" x="689.306641"/>
       <use xlink:href="#LiberationSans-2d" x="739.306641"/>
       <use xlink:href="#LiberationSans-68" x="772.607422"/>
       <use xlink:href="#LiberationSans-6f" x="828.222656"/>
       <use xlink:href="#LiberationSans-75" x="883.837891"/>
       <use xlink:href="#LiberationSans-73" x="939.453125"/>
       <use xlink:href="#LiberationSans-65" x="989.453125"/>
       <use xlink:href="#LiberationSans-2d" x="1045.068359"/>
       <use xlink:href="#LiberationSans-73" x="1078.369141"/>
       <use xlink:href="#LiberationSans-65" x="1128.369141"/>
       <use xlink:href="#LiberationSans-72" x="1183.984375"/>
       <use xlink:href="#LiberationSans-76" x="1217.285156"/>
      </g>
     </g>
    </g>
    <g id="ytick_17">
     <g id="line2d_23"/>
     <g id="text_23">
      <!-- occupation_ Craft-repair -->
      <g style="fill: #262626" transform="translate(38.335938 116.275745)scale(0.1 -0.1)">
       <defs>
        <path id="LiberationSans-43" d="M 2475 3981 
Q 2100 3981 1811 3856 
Q 1522 3731 1326 3500 
Q 1131 3269 1031 2944 
Q 931 2619 931 2222 
Q 931 1825 1039 1495 
Q 1147 1166 1348 928 
Q 1550 691 1842 559 
Q 2134 428 2500 428 
Q 2756 428 2967 495 
Q 3178 563 3348 684 
Q 3519 806 3653 973 
Q 3788 1141 3891 1344 
L 4378 1100 
Q 4259 853 4084 640 
Q 3909 428 3673 272 
Q 3438 116 3139 26 
Q 2841 -63 2472 -63 
Q 1938 -63 1536 107 
Q 1134 278 864 583 
Q 594 888 459 1306 
Q 325 1725 325 2222 
Q 325 2738 467 3153 
Q 609 3569 882 3861 
Q 1156 4153 1556 4311 
Q 1956 4469 2469 4469 
Q 3172 4469 3644 4194 
Q 4116 3919 4338 3378 
L 3772 3191 
Q 3709 3347 3603 3489 
Q 3497 3631 3337 3740 
Q 3178 3850 2964 3915 
Q 2750 3981 2475 3981 
z
" transform="scale(0.015625)"/>
       </defs>
       <use xlink:href="#LiberationSans-6f"/>
       <use xlink:href="#LiberationSans-63" x="55.615234"/>
       <use xlink:href="#LiberationSans-63" x="105.615234"/>
       <use xlink:href="#LiberationSans-75" x="155.615234"/>
       <use xlink:href="#LiberationSans-70" x="211.230469"/>
       <use xlink:href="#LiberationSans-61" x="266.845703"/>
       <use xlink:href="#LiberationSans-74" x="322.460938"/>
       <use xlink:href="#LiberationSans-69" x="350.244141"/>
       <use xlink:href="#LiberationSans-6f" x="372.460938"/>
       <use xlink:href="#LiberationSans-6e" x="428.076172"/>
       <use xlink:href="#LiberationSans-5f" x="483.691406"/>
       <use xlink:href="#LiberationSans-20" x="539.306641"/>
       <use xlink:href="#LiberationSans-43" x="567.089844"/>
       <use xlink:href="#LiberationSans-72" x="639.306641"/>
       <use xlink:href="#LiberationSans-61" x="672.607422"/>
       <use xlink:href="#LiberationSans-66" x="728.222656"/>
       <use xlink:href="#LiberationSans-74" x="756.005859"/>
       <use xlink:href="#LiberationSans-2d" x="783.789062"/>
       <use xlink:href="#LiberationSans-72" x="817.089844"/>
       <use xlink:href="#LiberationSans-65" x="850.390625"/>
       <use xlink:href="#LiberationSans-70" x="906.005859"/>
       <use xlink:href="#LiberationSans-61" x="961.621094"/>
       <use xlink:href="#LiberationSans-69" x="1017.236328"/>
       <use xlink:href="#LiberationSans-72" x="1039.453125"/>
      </g>
     </g>
    </g>
    <g id="ytick_18">
     <g id="line2d_24"/>
     <g id="text_24">
      <!-- occupation_ Exec-managerial -->
      <g style="fill: #262626" transform="translate(13.86875 96.89113)scale(0.1 -0.1)">
       <defs>
        <path id="LiberationSans-45" d="M 525 0 
L 525 4403 
L 3866 4403 
L 3866 3916 
L 1122 3916 
L 1122 2503 
L 3678 2503 
L 3678 2022 
L 1122 2022 
L 1122 488 
L 3994 488 
L 3994 0 
L 525 0 
z
" transform="scale(0.015625)"/>
        <path id="LiberationSans-78" d="M 2503 0 
L 1594 1388 
L 678 0 
L 72 0 
L 1275 1738 
L 128 3381 
L 750 3381 
L 1594 2066 
L 2431 3381 
L 3059 3381 
L 1913 1744 
L 3131 0 
L 2503 0 
z
" transform="scale(0.015625)"/>
       </defs>
       <use xlink:href="#LiberationSans-6f"/>
       <use xlink:href="#LiberationSans-63" x="55.615234"/>
       <use xlink:href="#LiberationSans-63" x="105.615234"/>
       <use xlink:href="#LiberationSans-75" x="155.615234"/>
       <use xlink:href="#LiberationSans-70" x="211.230469"/>
       <use xlink:href="#LiberationSans-61" x="266.845703"/>
       <use xlink:href="#LiberationSans-74" x="322.460938"/>
       <use xlink:href="#LiberationSans-69" x="350.244141"/>
       <use xlink:href="#LiberationSans-6f" x="372.460938"/>
       <use xlink:href="#LiberationSans-6e" x="428.076172"/>
       <use xlink:href="#LiberationSans-5f" x="483.691406"/>
       <use xlink:href="#LiberationSans-20" x="539.306641"/>
       <use xlink:href="#LiberationSans-45" x="567.089844"/>
       <use xlink:href="#LiberationSans-78" x="633.789062"/>
       <use xlink:href="#LiberationSans-65" x="683.789062"/>
       <use xlink:href="#LiberationSans-63" x="739.404297"/>
       <use xlink:href="#LiberationSans-2d" x="789.404297"/>
       <use xlink:href="#LiberationSans-6d" x="822.705078"/>
       <use xlink:href="#LiberationSans-61" x="906.005859"/>
       <use xlink:href="#LiberationSans-6e" x="961.621094"/>
       <use xlink:href="#LiberationSans-61" x="1017.236328"/>
       <use xlink:href="#LiberationSans-67" x="1072.851562"/>
       <use xlink:href="#LiberationSans-65" x="1128.466797"/>
       <use xlink:href="#LiberationSans-72" x="1184.082031"/>
       <use xlink:href="#LiberationSans-69" x="1217.382812"/>
       <use xlink:href="#LiberationSans-61" x="1239.599609"/>
       <use xlink:href="#LiberationSans-6c" x="1295.214844"/>
      </g>
     </g>
    </g>
    <g id="ytick_19">
     <g id="line2d_25"/>
     <g id="text_25">
      <!-- occupation_ Adm-clerical -->
      <g style="fill: #262626" transform="translate(34.440625 77.506514)scale(0.1 -0.1)">
       <use xlink:href="#LiberationSans-6f"/>
       <use xlink:href="#LiberationSans-63" x="55.615234"/>
       <use xlink:href="#LiberationSans-63" x="105.615234"/>
       <use xlink:href="#LiberationSans-75" x="155.615234"/>
       <use xlink:href="#LiberationSans-70" x="211.230469"/>
       <use xlink:href="#LiberationSans-61" x="266.845703"/>
       <use xlink:href="#LiberationSans-74" x="322.460938"/>
       <use xlink:href="#LiberationSans-69" x="350.244141"/>
       <use xlink:href="#LiberationSans-6f" x="372.460938"/>
       <use xlink:href="#LiberationSans-6e" x="428.076172"/>
       <use xlink:href="#LiberationSans-5f" x="483.691406"/>
       <use xlink:href="#LiberationSans-20" x="539.306641"/>
       <use xlink:href="#LiberationSans-41" x="561.589844"/>
       <use xlink:href="#LiberationSans-64" x="628.289062"/>
       <use xlink:href="#LiberationSans-6d" x="683.904297"/>
       <use xlink:href="#LiberationSans-2d" x="767.205078"/>
       <use xlink:href="#LiberationSans-63" x="800.505859"/>
       <use xlink:href="#LiberationSans-6c" x="850.505859"/>
       <use xlink:href="#LiberationSans-65" x="872.722656"/>
       <use xlink:href="#LiberationSans-72" x="928.337891"/>
       <use xlink:href="#LiberationSans-69" x="961.638672"/>
       <use xlink:href="#LiberationSans-63" x="983.855469"/>
       <use xlink:href="#LiberationSans-61" x="1033.855469"/>
       <use xlink:href="#LiberationSans-6c" x="1089.470703"/>
      </g>
     </g>
    </g>
    <g id="ytick_20">
     <g id="line2d_26"/>
     <g id="text_26">
      <!-- education-num -->
      <g style="fill: #262626" transform="translate(79.45625 58.121899)scale(0.1 -0.1)">
       <use xlink:href="#LiberationSans-65"/>
       <use xlink:href="#LiberationSans-64" x="55.615234"/>
       <use xlink:href="#LiberationSans-75" x="111.230469"/>
       <use xlink:href="#LiberationSans-63" x="166.845703"/>
       <use xlink:href="#LiberationSans-61" x="216.845703"/>
       <use xlink:href="#LiberationSans-74" x="272.460938"/>
       <use xlink:href="#LiberationSans-69" x="300.244141"/>
       <use xlink:href="#LiberationSans-6f" x="322.460938"/>
       <use xlink:href="#LiberationSans-6e" x="378.076172"/>
       <use xlink:href="#LiberationSans-2d" x="433.691406"/>
       <use xlink:href="#LiberationSans-6e" x="466.992188"/>
       <use xlink:href="#LiberationSans-75" x="522.607422"/>
       <use xlink:href="#LiberationSans-6d" x="578.222656"/>
      </g>
     </g>
    </g>
    <g id="ytick_21">
     <g id="line2d_27"/>
     <g id="text_27">
      <!-- hours per week -->
      <g style="fill: #262626" transform="translate(77.239063 38.737284)scale(0.1 -0.1)">
       <use xlink:href="#LiberationSans-68"/>
       <use xlink:href="#LiberationSans-6f" x="55.615234"/>
       <use xlink:href="#LiberationSans-75" x="111.230469"/>
       <use xlink:href="#LiberationSans-72" x="166.845703"/>
       <use xlink:href="#LiberationSans-73" x="200.146484"/>
       <use xlink:href="#LiberationSans-20" x="250.146484"/>
       <use xlink:href="#LiberationSans-70" x="277.929688"/>
       <use xlink:href="#LiberationSans-65" x="333.544922"/>
       <use xlink:href="#LiberationSans-72" x="389.160156"/>
       <use xlink:href="#LiberationSans-20" x="422.460938"/>
       <use xlink:href="#LiberationSans-77" x="450.244141"/>
       <use xlink:href="#LiberationSans-65" x="522.460938"/>
       <use xlink:href="#LiberationSans-65" x="578.076172"/>
       <use xlink:href="#LiberationSans-6b" x="633.691406"/>
      </g>
     </g>
    </g>
   </g>
   <g id="patch_3">
    <path d="M 524.971986 430.56 
L 527.416756 430.56 
L 527.416756 415.052308 
L 524.971986 415.052308 
z
" clip-path="url(#p47c3a1bcb2)" style="fill: #ed001b; fill-opacity: 0.304627"/>
   </g>
   <g id="patch_4">
    <path d="M 524.971986 411.175385 
L 531.180677 411.175385 
L 531.180677 395.667692 
L 524.971986 395.667692 
z
" clip-path="url(#p47c3a1bcb2)" style="fill: #ed001b; fill-opacity: 0.311752"/>
   </g>
   <g id="patch_5">
    <path d="M 524.971986 391.790769 
L 532.775333 391.790769 
L 532.775333 376.283077 
L 524.971986 376.283077 
z
" clip-path="url(#p47c3a1bcb2)" style="fill: #ed001b; fill-opacity: 0.31477"/>
   </g>
   <g id="patch_6">
    <path d="M 524.971986 372.406154 
L 534.385213 372.406154 
L 534.385213 356.898462 
L 524.971986 356.898462 
z
" clip-path="url(#p47c3a1bcb2)" style="fill: #ed001b; fill-opacity: 0.317817"/>
   </g>
   <g id="patch_7">
    <path d="M 524.971986 353.021538 
L 545.421194 353.021538 
L 545.421194 337.513846 
L 524.971986 337.513846 
z
" clip-path="url(#p47c3a1bcb2)" style="fill: #ed001b; fill-opacity: 0.338706"/>
   </g>
   <g id="patch_8">
    <path d="M 524.971986 333.636923 
L 553.190425 333.636923 
L 553.190425 318.129231 
L 524.971986 318.129231 
z
" clip-path="url(#p47c3a1bcb2)" style="fill: #ed001b; fill-opacity: 0.353412"/>
   </g>
   <g id="patch_9">
    <path d="M 524.971986 314.252308 
L 490.740136 314.252308 
L 490.740136 298.744615 
L 524.971986 298.744615 
z
" clip-path="url(#p47c3a1bcb2)" style="fill: #ed00ff; fill-opacity: 0.364794"/>
   </g>
   <g id="patch_10">
    <path d="M 524.971986 294.867692 
L 559.819228 294.867692 
L 559.819228 279.36 
L 524.971986 279.36 
z
" clip-path="url(#p47c3a1bcb2)" style="fill: #ed001b; fill-opacity: 0.365959"/>
   </g>
   <g id="patch_11">
    <path d="M 524.971986 275.483077 
L 561.141884 275.483077 
L 561.141884 259.975385 
L 524.971986 259.975385 
z
" clip-path="url(#p47c3a1bcb2)" style="fill: #ed001b; fill-opacity: 0.368462"/>
   </g>
   <g id="patch_12">
    <path d="M 524.971986 256.098462 
L 476.075933 256.098462 
L 476.075933 240.590769 
L 524.971986 240.590769 
z
" clip-path="url(#p47c3a1bcb2)" style="fill: #ed00ff; fill-opacity: 0.392551"/>
   </g>
   <g id="patch_13">
    <path d="M 524.971986 236.713846 
L 579.612475 236.713846 
L 579.612475 221.206154 
L 524.971986 221.206154 
z
" clip-path="url(#p47c3a1bcb2)" style="fill: #ed001b; fill-opacity: 0.403424"/>
   </g>
   <g id="patch_14">
    <path d="M 524.971986 217.329231 
L 598.539578 217.329231 
L 598.539578 201.821538 
L 524.971986 201.821538 
z
" clip-path="url(#p47c3a1bcb2)" style="fill: #ed001b; fill-opacity: 0.439249"/>
   </g>
   <g id="patch_15">
    <path d="M 524.971986 197.944615 
L 598.787945 197.944615 
L 598.787945 182.436923 
L 524.971986 182.436923 
z
" clip-path="url(#p47c3a1bcb2)" style="fill: #ed001b; fill-opacity: 0.439719"/>
   </g>
   <g id="patch_16">
    <path d="M 524.971986 178.56 
L 600.034193 178.56 
L 600.034193 163.052308 
L 524.971986 163.052308 
z
" clip-path="url(#p47c3a1bcb2)" style="fill: #ed001b; fill-opacity: 0.442078"/>
   </g>
   <g id="patch_17">
    <path d="M 524.971986 159.175385 
L 685.52409 159.175385 
L 685.52409 143.667692 
L 524.971986 143.667692 
z
" clip-path="url(#p47c3a1bcb2)" style="fill: #ed001b; fill-opacity: 0.603893"/>
   </g>
   <g id="patch_18">
    <path d="M 524.971986 139.790769 
L 336.949778 139.790769 
L 336.949778 124.283077 
L 524.971986 124.283077 
z
" clip-path="url(#p47c3a1bcb2)" style="fill: #ed00ff; fill-opacity: 0.655889"/>
   </g>
   <g id="patch_19">
    <path d="M 524.971986 120.406154 
L 727.319046 120.406154 
L 727.319046 104.898462 
L 524.971986 104.898462 
z
" clip-path="url(#p47c3a1bcb2)" style="fill: #ed001b; fill-opacity: 0.683003"/>
   </g>
   <g id="patch_20">
    <path d="M 524.971986 101.021538 
L 751.335004 101.021538 
L 751.335004 85.513846 
L 524.971986 85.513846 
z
" clip-path="url(#p47c3a1bcb2)" style="fill: #ed001b; fill-opacity: 0.72846"/>
   </g>
   <g id="patch_21">
    <path d="M 524.971986 81.636923 
L 184.612216 81.636923 
L 184.612216 66.129231 
L 524.971986 66.129231 
z
" clip-path="url(#p47c3a1bcb2)" style="fill: #ed00ff; fill-opacity: 0.944234"/>
   </g>
   <g id="patch_22">
    <path d="M 524.971986 62.252308 
L 878.561209 62.252308 
L 878.561209 46.744615 
L 524.971986 46.744615 
z
" clip-path="url(#p47c3a1bcb2)" style="fill: #ed001b; fill-opacity: 0.969274"/>
   </g>
   <g id="patch_23">
    <path d="M 524.971986 42.867692 
L 894.794034 42.867692 
L 894.794034 27.36 
L 524.971986 27.36 
z
" clip-path="url(#p47c3a1bcb2)" style="fill: #ed001b"/>
   </g>
   <g id="patch_24">
    <path d="M 149.103125 450.72 
L 149.103125 7.2 
" style="fill: none"/>
   </g>
   <g id="patch_25">
    <path d="M 930.303125 450.72 
L 930.303125 7.2 
" style="fill: none"/>
   </g>
   <g id="patch_26">
    <path d="M 149.103125 450.72 
L 930.303125 450.72 
" style="fill: none"/>
   </g>
   <g id="patch_27">
    <path d="M 149.103125 7.2 
L 930.303125 7.2 
" style="fill: none"/>
   </g>
  </g>
 </g>
 <defs>
  <clipPath id="p47c3a1bcb2">
   <rect x="149.103125" y="7.2" width="781.2" height="443.52"/>
  </clipPath>
 </defs>
</svg>
